<svg width="20" height="20" viewBox="0 0 20 20" fill="none" xmlns="http://www.w3.org/2000/svg">
<path d="M17.5 2.7234H5.35156L5.23438 2.21277C5.10417 1.56028 4.8112 1.02837 4.35547 0.617021C3.89974 0.205674 3.35938 0 2.73438 0H0.820312C0.585938 0 0.390625 0.0851064 0.234375 0.255319C0.078125 0.425532 0 0.652482 0 0.93617C0 1.19149 0.078125 1.40426 0.234375 1.57447C0.390625 1.74468 0.585938 1.82979 0.820312 1.82979H2.73438C3.22917 1.82979 3.51562 2.07092 3.59375 2.55319L5.50781 13.4468C5.66406 14.0426 5.97005 14.5248 6.42578 14.8936C6.88151 15.2624 7.38281 15.4468 7.92969 15.4468H15.8203C16.0807 15.4468 16.2891 15.3617 16.4453 15.1915C16.6016 15.0213 16.6797 14.8085 16.6797 14.5532C16.6797 13.9291 16.3932 13.617 15.8203 13.617H7.92969C7.5651 13.617 7.30469 13.4468 7.14844 13.1064L7.07031 12.7234H15.4297C15.9505 12.7234 16.4258 12.5532 16.8555 12.2128C17.2852 11.8723 17.5781 11.4326 17.7344 10.8936L20 5.65957V5.44681C20 4.68085 19.7591 4.03546 19.2773 3.51064C18.7956 2.98582 18.2031 2.7234 17.5 2.7234ZM7.5 10.8936H6.75781L5.66406 4.55319H7.5V10.8936ZM10.8203 10.8936H9.17969V4.55319H10.8203V10.8936ZM14.1797 10.8936H12.5V4.55319H14.1797V10.8936ZM16.25 10.1702V10.2553C16.1719 10.539 16.0286 10.7234 15.8203 10.8085V4.55319H17.5C17.9688 4.55319 18.2422 4.79433 18.3203 5.2766L16.25 10.1702ZM10 18.1702C10 18.6809 9.83724 19.1135 9.51172 19.4681C9.1862 19.8227 8.78906 20 8.32031 20C7.8776 20 7.49349 19.8227 7.16797 19.4681C6.84245 19.1135 6.67969 18.6809 6.67969 18.1702C6.67969 17.6596 6.84245 17.2269 7.16797 16.8723C7.49349 16.5177 7.8776 16.3404 8.32031 16.3404C8.78906 16.3404 9.1862 16.5177 9.51172 16.8723C9.83724 17.2269 10 17.6596 10 18.1702ZM16.6797 18.1702C16.6797 18.6809 16.5169 19.1135 16.1914 19.4681C15.8659 19.8227 15.4688 20 15 20C14.5312 20 14.1341 19.8227 13.8086 19.4681C13.4831 19.1135 13.3203 18.6809 13.3203 18.1702C13.3203 17.6596 13.4831 17.2269 13.8086 16.8723C14.1341 16.5177 14.5312 16.3404 15 16.3404C15.4688 16.3404 15.8659 16.5177 16.1914 16.8723C16.5169 17.2269 16.6797 17.6596 16.6797 18.1702Z" fill="black"/>
</svg>
